<?xml version="1.0" encoding="UTF-8" standalone="no"?>
<!-- Created with Inkscape (http://www.inkscape.org/) -->

<svg
   version="1.1"
   id="svg8554"
   width="1066.6667"
   height="1066.6667"
   viewBox="0 0 1066.6667 1066.6667"
   sodipodi:docname="sailboat-ocean-pdv.svg"
   inkscape:version="1.2 (dc2aedaf03, 2022-05-15)"
   xmlns:inkscape="http://www.inkscape.org/namespaces/inkscape"
   xmlns:sodipodi="http://sodipodi.sourceforge.net/DTD/sodipodi-0.dtd"
   xmlns="http://www.w3.org/2000/svg"
   xmlns:svg="http://www.w3.org/2000/svg">
  <defs
     id="defs8558">
    <clipPath
       clipPathUnits="userSpaceOnUse"
       id="clipPath8572">
      <path
         d="M 0,800 H 800 V 0 H 0 Z"
         id="path8570" />
    </clipPath>
  </defs>
  <sodipodi:namedview
     id="namedview8556"
     pagecolor="#ffffff"
     bordercolor="#000000"
     borderopacity="0.25"
     inkscape:showpageshadow="2"
     inkscape:pageopacity="0.0"
     inkscape:pagecheckerboard="0"
     inkscape:deskcolor="#d1d1d1"
     showgrid="false"
     inkscape:zoom="0.7846874"
     inkscape:cx="533.3334"
     inkscape:cy="533.97059"
     inkscape:window-width="1920"
     inkscape:window-height="1017"
     inkscape:window-x="-8"
     inkscape:window-y="-8"
     inkscape:window-maximized="1"
     inkscape:current-layer="g8562">
    <inkscape:page
       x="0"
       y="0"
       id="page8560"
       width="1066.6667"
       height="1066.6667" />
  </sodipodi:namedview>
  <g
     id="g8562"
     inkscape:groupmode="layer"
     inkscape:label="Page 1"
     transform="matrix(1.3333333,0,0,-1.3333333,0,1066.6667)">
    <path
       d="M 3.327,0 H 800 V 799.491 H 3.327 Z"
       style="fill:#5b86b1;fill-opacity:1;fill-rule:nonzero;stroke:none"
       id="path8564" />
    <g
       id="g8566">
      <g
         id="g8568"
         clip-path="url(#clipPath8572)">
        <g
           id="g8574"
           transform="translate(800,356.8877)">
          <path
             d="m 0,0 h -796.672 v 40.758 c 8.462,0 16.357,2.441 23.022,6.659 10.519,6.656 23.105,6.656 33.624,0 6.664,-4.218 14.559,-6.659 23.021,-6.659 8.463,0 16.357,2.441 23.023,6.659 10.518,6.656 23.105,6.656 33.623,0 6.665,-4.218 14.559,-6.659 23.022,-6.659 8.462,0 16.357,2.441 23.022,6.659 10.518,6.656 23.105,6.656 33.623,0 6.665,-4.218 14.559,-6.659 23.022,-6.659 8.462,0 16.357,2.441 23.022,6.659 10.518,6.656 23.104,6.656 33.623,0 6.666,-4.218 14.559,-6.659 23.023,-6.659 8.461,0 16.355,2.441 23.021,6.659 10.519,6.656 23.105,6.656 33.623,0 6.665,-4.218 14.56,-6.659 23.022,-6.659 8.463,0 16.356,2.441 23.022,6.659 10.518,6.656 23.105,6.656 33.624,0 6.665,-4.218 14.558,-6.659 23.021,-6.659 8.463,0 16.357,2.441 23.022,6.659 10.519,6.656 23.105,6.656 33.624,0 6.665,-4.218 14.558,-6.659 23.021,-6.659 8.463,0 16.357,2.441 23.023,6.659 10.518,6.656 23.104,6.656 33.623,0 6.665,-4.218 14.558,-6.659 23.022,-6.659 8.461,0 16.356,2.441 23.022,6.659 10.518,6.656 23.104,6.656 33.622,0 6.666,-4.218 14.561,-6.659 23.022,-6.659 8.462,0 16.357,2.441 23.022,6.659 10.519,6.656 23.105,6.656 33.623,0 6.667,-4.218 14.56,-6.659 23.023,-6.659 z"
             style="fill:#c4dbf2;fill-opacity:1;fill-rule:evenodd;stroke:none"
             id="path8576" />
        </g>
        <g
           id="g8578"
           transform="translate(800,324.4453)">
          <path
             d="m 0,0 h -796.672 v 40.757 c 8.463,0 16.357,2.44 23.022,6.658 10.52,6.657 23.105,6.657 33.624,0 6.665,-4.218 14.559,-6.658 23.022,-6.658 8.462,0 16.357,2.44 23.022,6.658 10.518,6.657 23.105,6.657 33.623,0 6.666,-4.218 14.559,-6.658 23.022,-6.658 8.462,0 16.357,2.44 23.022,6.658 10.518,6.657 23.105,6.657 33.624,0 6.665,-4.218 14.559,-6.658 23.022,-6.658 8.462,0 16.356,2.44 23.021,6.658 10.519,6.657 23.105,6.657 33.624,0 6.665,-4.218 14.559,-6.658 23.022,-6.658 8.462,0 16.356,2.44 23.021,6.658 10.519,6.657 23.105,6.657 33.624,0 6.665,-4.218 14.559,-6.658 23.021,-6.658 8.463,0 16.356,2.44 23.022,6.658 10.518,6.657 23.105,6.657 33.624,0 6.665,-4.218 14.558,-6.658 23.021,-6.658 8.463,0 16.357,2.44 23.022,6.658 10.519,6.657 23.105,6.657 33.624,0 6.665,-4.218 14.558,-6.658 23.021,-6.658 8.463,0 16.357,2.44 23.023,6.658 10.518,6.657 23.104,6.657 33.623,0 6.665,-4.218 14.558,-6.658 23.022,-6.658 8.461,0 16.356,2.44 23.022,6.658 10.518,6.657 23.104,6.657 33.622,0 6.666,-4.218 14.561,-6.658 23.022,-6.658 8.462,0 16.357,2.44 23.022,6.658 10.519,6.657 23.105,6.657 33.623,0 6.667,-4.218 14.56,-6.658 23.023,-6.658 z"
             style="fill:#b7d0ea;fill-opacity:1;fill-rule:evenodd;stroke:none"
             id="path8580" />
        </g>
        <g
           id="g8582"
           transform="translate(800,292)">
          <path
             d="m 0,0 h -796.672 v 40.758 c 8.463,0 16.357,2.44 23.022,6.658 10.52,6.656 23.105,6.656 33.624,0 6.665,-4.218 14.559,-6.658 23.022,-6.658 8.462,0 16.357,2.44 23.022,6.658 10.518,6.656 23.105,6.656 33.623,0 6.666,-4.218 14.559,-6.658 23.022,-6.658 8.462,0 16.357,2.44 23.022,6.658 10.518,6.656 23.105,6.656 33.624,0 6.665,-4.218 14.559,-6.658 23.022,-6.658 8.462,0 16.356,2.44 23.021,6.658 10.519,6.656 23.105,6.656 33.624,0 6.665,-4.218 14.559,-6.658 23.022,-6.658 8.462,0 16.356,2.44 23.021,6.658 10.519,6.656 23.105,6.656 33.624,0 6.665,-4.218 14.559,-6.658 23.021,-6.658 8.463,0 16.356,2.44 23.022,6.658 10.518,6.656 23.105,6.656 33.624,0 6.665,-4.218 14.558,-6.658 23.021,-6.658 8.463,0 16.357,2.44 23.022,6.658 10.519,6.656 23.105,6.656 33.624,0 6.665,-4.218 14.558,-6.658 23.021,-6.658 8.463,0 16.357,2.44 23.023,6.658 10.518,6.656 23.104,6.656 33.623,0 6.665,-4.218 14.558,-6.658 23.022,-6.658 8.461,0 16.356,2.44 23.022,6.658 10.518,6.656 23.104,6.656 33.622,0 6.666,-4.218 14.561,-6.658 23.022,-6.658 8.462,0 16.357,2.44 23.022,6.658 10.519,6.656 23.105,6.656 33.623,0 6.667,-4.218 14.56,-6.658 23.023,-6.658 z"
             style="fill:#aac6e2;fill-opacity:1;fill-rule:evenodd;stroke:none"
             id="path8584" />
        </g>
        <g
           id="g8586"
           transform="translate(800,259.5557)">
          <path
             d="m 0,0 h -796.672 v 40.757 c 8.463,0 16.357,2.441 23.022,6.659 10.52,6.657 23.105,6.657 33.624,0 6.665,-4.218 14.559,-6.659 23.022,-6.659 8.462,0 16.357,2.441 23.022,6.659 10.518,6.657 23.105,6.657 33.623,0 6.666,-4.218 14.559,-6.659 23.022,-6.659 8.462,0 16.357,2.441 23.022,6.659 10.518,6.657 23.105,6.657 33.624,0 6.665,-4.218 14.559,-6.659 23.022,-6.659 8.462,0 16.356,2.441 23.021,6.659 10.519,6.657 23.105,6.657 33.624,0 6.665,-4.218 14.559,-6.659 23.022,-6.659 8.462,0 16.356,2.441 23.021,6.659 10.519,6.657 23.105,6.657 33.624,0 6.665,-4.218 14.559,-6.659 23.021,-6.659 8.463,0 16.356,2.441 23.022,6.659 10.518,6.657 23.105,6.657 33.624,0 6.665,-4.218 14.558,-6.659 23.021,-6.659 8.463,0 16.357,2.441 23.022,6.659 10.519,6.657 23.105,6.657 33.624,0 6.665,-4.218 14.558,-6.659 23.021,-6.659 8.463,0 16.357,2.441 23.023,6.659 10.518,6.657 23.104,6.657 33.623,0 6.665,-4.218 14.558,-6.659 23.022,-6.659 8.461,0 16.356,2.441 23.022,6.659 10.518,6.657 23.104,6.657 33.622,0 6.666,-4.218 14.561,-6.659 23.022,-6.659 8.462,0 16.357,2.441 23.022,6.659 10.519,6.657 23.105,6.657 33.623,0 6.667,-4.218 14.56,-6.659 23.023,-6.659 z"
             style="fill:#9cbbda;fill-opacity:1;fill-rule:evenodd;stroke:none"
             id="path8588" />
        </g>
        <g
           id="g8590"
           transform="translate(800,227.1113)">
          <path
             d="m 0,0 h -796.672 v 40.757 c 8.463,0 16.357,2.441 23.022,6.66 10.52,6.656 23.105,6.656 33.624,0 6.665,-4.219 14.559,-6.66 23.022,-6.66 8.462,0 16.357,2.441 23.022,6.66 10.518,6.656 23.105,6.656 33.623,0 6.666,-4.219 14.559,-6.66 23.022,-6.66 8.462,0 16.357,2.441 23.022,6.66 10.518,6.656 23.105,6.656 33.624,0 6.665,-4.219 14.559,-6.66 23.022,-6.66 8.462,0 16.356,2.441 23.021,6.66 10.519,6.656 23.105,6.656 33.624,0 6.665,-4.219 14.559,-6.66 23.022,-6.66 8.462,0 16.356,2.441 23.021,6.66 10.519,6.656 23.105,6.656 33.624,0 6.665,-4.219 14.559,-6.66 23.021,-6.66 8.463,0 16.356,2.441 23.022,6.66 10.518,6.656 23.105,6.656 33.624,0 6.665,-4.219 14.558,-6.66 23.021,-6.66 8.463,0 16.357,2.441 23.022,6.66 10.519,6.656 23.105,6.656 33.624,0 6.665,-4.219 14.558,-6.66 23.021,-6.66 8.463,0 16.357,2.441 23.023,6.66 10.518,6.656 23.104,6.656 33.623,0 6.665,-4.219 14.558,-6.66 23.022,-6.66 8.461,0 16.356,2.441 23.022,6.66 10.518,6.656 23.104,6.656 33.622,0 6.666,-4.219 14.561,-6.66 23.022,-6.66 8.462,0 16.357,2.441 23.022,6.66 10.519,6.656 23.105,6.656 33.623,0 6.667,-4.219 14.56,-6.66 23.023,-6.66 z"
             style="fill:#8fb0d2;fill-opacity:1;fill-rule:evenodd;stroke:none"
             id="path8592" />
        </g>
        <g
           id="g8594"
           transform="translate(800,194.667)">
          <path
             d="m 0,0 h -796.672 v 40.757 c 8.463,0 16.357,2.44 23.022,6.658 10.52,6.658 23.105,6.658 33.624,0 6.665,-4.218 14.559,-6.658 23.022,-6.658 8.462,0 16.357,2.44 23.022,6.658 10.518,6.658 23.105,6.658 33.623,0 6.666,-4.218 14.559,-6.658 23.022,-6.658 8.462,0 16.357,2.44 23.022,6.658 10.518,6.658 23.105,6.658 33.624,0 6.665,-4.218 14.559,-6.658 23.022,-6.658 8.462,0 16.356,2.44 23.021,6.658 10.519,6.658 23.105,6.658 33.624,0 6.665,-4.218 14.559,-6.658 23.022,-6.658 8.462,0 16.356,2.44 23.021,6.658 10.519,6.658 23.105,6.658 33.624,0 6.665,-4.218 14.559,-6.658 23.021,-6.658 8.463,0 16.356,2.44 23.022,6.658 10.518,6.658 23.105,6.658 33.624,0 6.665,-4.218 14.558,-6.658 23.021,-6.658 8.463,0 16.357,2.44 23.022,6.658 10.519,6.658 23.105,6.658 33.624,0 6.665,-4.218 14.558,-6.658 23.021,-6.658 8.463,0 16.357,2.44 23.023,6.658 10.518,6.658 23.104,6.658 33.623,0 6.665,-4.218 14.558,-6.658 23.022,-6.658 8.461,0 16.356,2.44 23.022,6.658 10.518,6.658 23.104,6.658 33.622,0 6.666,-4.218 14.561,-6.658 23.022,-6.658 8.462,0 16.357,2.44 23.022,6.658 10.519,6.658 23.105,6.658 33.623,0 6.667,-4.218 14.56,-6.658 23.023,-6.658 z"
             style="fill:#82a6ca;fill-opacity:1;fill-rule:evenodd;stroke:none"
             id="path8596" />
        </g>
        <g
           id="g8598"
           transform="translate(381.8325,480.5747)">
          <path
             d="M 0,0 H 3.847 L 7.006,-243.29 H -3.161 Z"
             style="fill:#ffffff;fill-opacity:1;fill-rule:evenodd;stroke:none"
             id="path8600" />
        </g>
        <g
           id="g8602"
           transform="translate(800,162.2236)">
          <path
             d="m 0,0 h -796.672 v 40.757 c 8.463,0 16.357,2.439 23.022,6.659 10.52,6.656 23.105,6.656 33.624,0 6.665,-4.22 14.559,-6.659 23.022,-6.659 8.462,0 16.357,2.439 23.022,6.659 10.518,6.656 23.105,6.656 33.623,0 6.666,-4.22 14.559,-6.659 23.022,-6.659 8.462,0 16.357,2.439 23.022,6.659 10.518,6.656 23.105,6.656 33.624,0 6.665,-4.22 14.559,-6.659 23.022,-6.659 8.462,0 16.356,2.439 23.021,6.659 10.519,6.656 23.105,6.656 33.624,0 6.665,-4.22 14.559,-6.659 23.022,-6.659 8.462,0 16.356,2.439 23.021,6.659 10.519,6.656 23.105,6.656 33.624,0 6.665,-4.22 14.559,-6.659 23.021,-6.659 8.463,0 16.356,2.439 23.022,6.659 10.518,6.656 23.105,6.656 33.624,0 6.665,-4.22 14.558,-6.659 23.021,-6.659 8.463,0 16.357,2.439 23.022,6.659 10.519,6.656 23.105,6.656 33.624,0 6.665,-4.22 14.558,-6.659 23.021,-6.659 8.463,0 16.357,2.439 23.023,6.659 10.518,6.656 23.104,6.656 33.623,0 6.665,-4.22 14.558,-6.659 23.022,-6.659 8.461,0 16.356,2.439 23.022,6.659 10.518,6.656 23.104,6.656 33.622,0 6.666,-4.22 14.561,-6.659 23.022,-6.659 8.462,0 16.357,2.439 23.022,6.659 10.519,6.656 23.105,6.656 33.623,0 6.667,-4.22 14.56,-6.659 23.023,-6.659 z"
             style="fill:#759bc1;fill-opacity:1;fill-rule:evenodd;stroke:none"
             id="path8604" />
        </g>
        <g
           id="g8606"
           transform="translate(294.1387,298.0723)">
          <path
             d="m 0,0 h 109.699 v -42.635 h 64.617 l 22.052,-39.651 H -20.153 Z"
             style="fill:#422100;fill-opacity:1;fill-rule:evenodd;stroke:none"
             id="path8608" />
        </g>
        <g
           id="g8610"
           transform="translate(411.7031,227.2822)">
          <path
             d="m 0,0 h 160.791 c 22.196,0 40.357,-18.225 40.357,-40.5 v -26.358 h -367.704 c 0,43.287 -78.824,65.922 -78.824,109.209 h 166.556 z"
             style="fill:#ffffff;fill-opacity:1;fill-rule:evenodd;stroke:none"
             id="path8612" />
        </g>
        <g
           id="g8614"
           transform="translate(412.8672,227.2822)">
          <path
             d="m 0,0 h 159.627 c 15.986,0 29.879,-9.454 36.401,-23.067 h -390.497 c -15.851,14.122 -34.758,27.443 -44.861,43.072 h 202.098 z"
             style="fill:#663300;fill-opacity:1;fill-rule:evenodd;stroke:none"
             id="path8616" />
        </g>
        <g
           id="g8618"
           transform="translate(800,129.7773)">
          <path
             d="m 0,0 h -796.672 v 40.759 c 8.463,0 16.357,2.44 23.022,6.658 10.52,6.656 23.105,6.656 33.624,0 6.665,-4.218 14.559,-6.658 23.022,-6.658 8.462,0 16.357,2.44 23.022,6.658 10.518,6.656 23.105,6.656 33.623,0 6.666,-4.218 14.559,-6.658 23.022,-6.658 8.462,0 16.357,2.44 23.022,6.658 10.518,6.656 23.105,6.656 33.624,0 6.665,-4.218 14.559,-6.658 23.022,-6.658 8.462,0 16.356,2.44 23.021,6.658 10.519,6.656 23.105,6.656 33.624,0 6.665,-4.218 14.559,-6.658 23.022,-6.658 8.462,0 16.356,2.44 23.021,6.658 10.519,6.656 23.105,6.656 33.624,0 6.665,-4.218 14.559,-6.658 23.021,-6.658 8.463,0 16.356,2.44 23.022,6.658 10.518,6.656 23.105,6.656 33.624,0 6.665,-4.218 14.558,-6.658 23.021,-6.658 8.463,0 16.357,2.44 23.022,6.658 10.519,6.656 23.105,6.656 33.624,0 6.665,-4.218 14.558,-6.658 23.021,-6.658 8.463,0 16.357,2.44 23.023,6.658 10.518,6.656 23.104,6.656 33.623,0 6.665,-4.218 14.558,-6.658 23.022,-6.658 8.461,0 16.356,2.44 23.022,6.658 10.518,6.656 23.104,6.656 33.622,0 6.666,-4.218 14.561,-6.658 23.022,-6.658 8.462,0 16.357,2.44 23.022,6.658 10.519,6.656 23.105,6.656 33.623,0 6.667,-4.218 14.56,-6.658 23.023,-6.658 z"
             style="fill:#6891b9;fill-opacity:1;fill-rule:evenodd;stroke:none"
             id="path8620" />
        </g>
        <g
           id="g8622"
           transform="translate(800,97.334)">
          <path
             d="m 0,0 h -796.672 v 40.758 c 8.463,0 16.357,2.44 23.022,6.658 10.52,6.656 23.105,6.656 33.624,0 6.665,-4.218 14.559,-6.658 23.022,-6.658 8.462,0 16.357,2.44 23.022,6.658 10.518,6.656 23.105,6.656 33.623,0 6.666,-4.218 14.559,-6.658 23.022,-6.658 8.462,0 16.357,2.44 23.022,6.658 10.518,6.656 23.105,6.656 33.624,0 6.665,-4.218 14.559,-6.658 23.022,-6.658 8.462,0 16.356,2.44 23.021,6.658 10.519,6.656 23.105,6.656 33.624,0 6.665,-4.218 14.559,-6.658 23.022,-6.658 8.462,0 16.356,2.44 23.021,6.658 10.519,6.656 23.105,6.656 33.624,0 6.665,-4.218 14.559,-6.658 23.021,-6.658 8.463,0 16.356,2.44 23.022,6.658 10.518,6.656 23.105,6.656 33.624,0 6.665,-4.218 14.558,-6.658 23.021,-6.658 8.463,0 16.357,2.44 23.022,6.658 10.519,6.656 23.105,6.656 33.624,0 6.665,-4.218 14.558,-6.658 23.021,-6.658 8.463,0 16.357,2.44 23.023,6.658 10.518,6.656 23.104,6.656 33.623,0 6.665,-4.218 14.558,-6.658 23.022,-6.658 8.461,0 16.356,2.44 23.022,6.658 10.518,6.656 23.104,6.656 33.622,0 6.666,-4.218 14.561,-6.658 23.022,-6.658 8.462,0 16.357,2.44 23.022,6.658 10.519,6.656 23.105,6.656 33.623,0 6.667,-4.218 14.56,-6.658 23.023,-6.658 z"
             style="fill:#5b86b1;fill-opacity:1;fill-rule:evenodd;stroke:none"
             id="path8624" />
        </g>
        <g
           id="g8626"
           transform="translate(800,64.8896)">
          <path
             d="m 0,0 h -796.672 v 40.757 c 8.463,0 16.357,2.441 23.022,6.659 10.52,6.657 23.105,6.657 33.624,0 6.665,-4.218 14.559,-6.659 23.022,-6.659 8.462,0 16.357,2.441 23.022,6.659 10.518,6.657 23.105,6.657 33.623,0 6.666,-4.218 14.559,-6.659 23.022,-6.659 8.462,0 16.357,2.441 23.022,6.659 10.518,6.657 23.105,6.657 33.624,0 6.665,-4.218 14.559,-6.659 23.022,-6.659 8.462,0 16.356,2.441 23.021,6.659 10.519,6.657 23.105,6.657 33.624,0 6.665,-4.218 14.559,-6.659 23.022,-6.659 8.462,0 16.356,2.441 23.021,6.659 10.519,6.657 23.105,6.657 33.624,0 6.665,-4.218 14.559,-6.659 23.021,-6.659 8.463,0 16.356,2.441 23.022,6.659 10.518,6.657 23.105,6.657 33.624,0 6.665,-4.218 14.558,-6.659 23.021,-6.659 8.463,0 16.357,2.441 23.022,6.659 10.519,6.657 23.105,6.657 33.624,0 6.665,-4.218 14.558,-6.659 23.021,-6.659 8.463,0 16.357,2.441 23.023,6.659 10.518,6.657 23.104,6.657 33.623,0 6.665,-4.218 14.558,-6.659 23.022,-6.659 8.461,0 16.356,2.441 23.022,6.659 10.518,6.657 23.104,6.657 33.622,0 6.666,-4.218 14.561,-6.659 23.022,-6.659 8.462,0 16.357,2.441 23.022,6.659 10.519,6.657 23.105,6.657 33.623,0 6.667,-4.218 14.56,-6.659 23.023,-6.659 z"
             style="fill:#4d7ba9;fill-opacity:1;fill-rule:evenodd;stroke:none"
             id="path8628" />
        </g>
        <g
           id="g8630"
           transform="translate(800,32.4453)">
          <path
             d="m 0,0 h -796.672 v 40.757 c 8.463,0 16.357,2.441 23.022,6.66 10.52,6.656 23.105,6.656 33.624,0 6.665,-4.219 14.559,-6.66 23.022,-6.66 8.462,0 16.357,2.441 23.022,6.66 10.518,6.656 23.105,6.656 33.623,0 6.666,-4.219 14.559,-6.66 23.022,-6.66 8.462,0 16.357,2.441 23.022,6.66 10.518,6.656 23.105,6.656 33.624,0 6.665,-4.219 14.559,-6.66 23.022,-6.66 8.462,0 16.356,2.441 23.021,6.66 10.519,6.656 23.105,6.656 33.624,0 6.665,-4.219 14.559,-6.66 23.022,-6.66 8.462,0 16.356,2.441 23.021,6.66 10.519,6.656 23.105,6.656 33.624,0 6.665,-4.219 14.559,-6.66 23.021,-6.66 8.463,0 16.356,2.441 23.022,6.66 10.518,6.656 23.105,6.656 33.624,0 6.665,-4.219 14.558,-6.66 23.021,-6.66 8.463,0 16.357,2.441 23.022,6.66 10.519,6.656 23.105,6.656 33.624,0 6.665,-4.219 14.558,-6.66 23.021,-6.66 8.463,0 16.357,2.441 23.023,6.66 10.518,6.656 23.104,6.656 33.623,0 6.665,-4.219 14.558,-6.66 23.022,-6.66 8.461,0 16.356,2.441 23.022,6.66 10.518,6.656 23.104,6.656 33.622,0 6.666,-4.219 14.561,-6.66 23.022,-6.66 8.462,0 16.357,2.441 23.022,6.66 10.519,6.656 23.105,6.656 33.623,0 6.667,-4.219 14.56,-6.66 23.023,-6.66 z"
             style="fill:#4071a1;fill-opacity:1;fill-rule:evenodd;stroke:none"
             id="path8632" />
        </g>
        <g
           id="g8634"
           transform="translate(800)">
          <path
             d="m 0,0 h -796.672 v 40.757 c 8.462,0 16.357,2.441 23.022,6.659 10.519,6.657 23.105,6.657 33.624,0 6.664,-4.218 14.559,-6.659 23.021,-6.659 8.463,0 16.357,2.441 23.023,6.659 10.518,6.657 23.105,6.657 33.623,0 6.665,-4.218 14.559,-6.659 23.022,-6.659 8.462,0 16.357,2.441 23.022,6.659 10.518,6.657 23.105,6.657 33.623,0 6.665,-4.218 14.559,-6.659 23.022,-6.659 8.462,0 16.357,2.441 23.022,6.659 10.518,6.657 23.104,6.657 33.623,0 6.666,-4.218 14.559,-6.659 23.023,-6.659 8.461,0 16.355,2.441 23.021,6.659 10.519,6.657 23.105,6.657 33.623,0 6.665,-4.218 14.56,-6.659 23.022,-6.659 8.463,0 16.356,2.441 23.022,6.659 10.518,6.657 23.105,6.657 33.624,0 6.665,-4.218 14.558,-6.659 23.021,-6.659 8.463,0 16.357,2.441 23.022,6.659 10.519,6.657 23.105,6.657 33.624,0 6.665,-4.218 14.558,-6.659 23.021,-6.659 8.463,0 16.357,2.441 23.023,6.659 10.518,6.657 23.104,6.657 33.623,0 6.665,-4.218 14.558,-6.659 23.022,-6.659 8.461,0 16.356,2.441 23.022,6.659 10.518,6.657 23.104,6.657 33.622,0 6.666,-4.218 14.561,-6.659 23.022,-6.659 8.462,0 16.357,2.441 23.022,6.659 10.519,6.657 23.105,6.657 33.623,0 6.667,-4.218 14.56,-6.659 23.023,-6.659 z"
             style="fill:#336699;fill-opacity:1;fill-rule:evenodd;stroke:none"
             id="path8636" />
        </g>
        <g
           id="g8638"
           transform="translate(165.3521,725.2397)">
          <path
             d="M 0,0 C 5.836,-0.712 11.182,-3.022 15.588,-6.482 L 26.483,4.452 c 1.495,1.501 3.941,1.501 5.436,0 1.495,-1.5 1.495,-3.955 0,-5.455 L 21.023,-11.937 c 3.448,-4.421 5.75,-9.786 6.459,-15.642 h 15.407 c 2.114,0 3.843,-1.736 3.843,-3.858 0,-2.123 -1.729,-3.858 -3.843,-3.858 H 27.482 c -0.709,-5.857 -3.011,-11.222 -6.459,-15.643 l 10.896,-10.934 c 1.495,-1.5 1.495,-3.955 0,-5.455 -1.495,-1.501 -3.941,-1.501 -5.436,0 L 15.588,-56.393 C 11.182,-59.853 5.837,-62.164 0,-62.875 v -15.461 c 0,-2.122 -1.73,-3.857 -3.844,-3.857 -2.114,0 -3.844,1.735 -3.844,3.857 v 15.461 c -5.837,0.711 -11.183,3.022 -15.588,6.482 l -10.895,-10.934 c -1.496,-1.501 -3.941,-1.501 -5.436,0 -1.496,1.499 -1.496,3.955 0,5.455 l 10.895,10.934 c -3.447,4.421 -5.75,9.785 -6.459,15.643 h -15.406 c -2.115,0 -3.844,1.735 -3.844,3.858 0,2.121 1.729,3.858 3.844,3.858 h 15.406 c 0.709,5.856 3.012,11.221 6.459,15.642 l -10.895,10.934 c -1.496,1.5 -1.496,3.955 0,5.455 1.495,1.501 3.94,1.501 5.436,0 l 10.895,-10.934 c 4.405,3.46 9.751,5.77 15.588,6.482 v 15.46 c 0,2.123 1.729,3.858 3.844,3.858 C -1.73,19.318 0,17.583 0,15.46 Z"
             style="fill:#ffcc00;fill-opacity:1;fill-rule:evenodd;stroke:none"
             id="path8640" />
        </g>
        <g
           id="g8642"
           transform="translate(69.6504,549.0649)">
          <path
             d="m 0,0 c 0.679,0 1.349,-0.039 2.009,-0.115 4.41,11.603 15.601,19.847 28.712,19.847 15.576,0 28.442,-11.634 30.447,-26.714 3.596,1.936 7.705,3.036 12.071,3.036 2.672,0 5.25,-0.413 7.67,-1.176 2.192,16.535 16.298,29.293 33.374,29.293 14.606,0 27.038,-9.334 31.701,-22.383 0.886,0.121 1.788,0.185 2.707,0.185 10.994,0 19.907,-8.945 19.907,-19.978 0,-0.082 -0.002,-0.164 -0.003,-0.247 H -17.689 c -0.004,0.165 -0.006,0.329 -0.006,0.494 C -17.695,-7.951 -9.773,0 0,0"
             style="fill:#ffffff;fill-opacity:1;fill-rule:evenodd;stroke:none"
             id="path8644" />
        </g>
        <g
           id="g8646"
           transform="translate(761.46,502.0972)">
          <path
             d="m 0,0 c -0.14,11.562 -9.521,20.892 -21.074,20.892 -4.518,0 -8.702,-1.427 -12.135,-3.855 -6.365,5.955 -14.906,9.6 -24.297,9.6 -6.629,0 -12.835,-1.819 -18.151,-4.982 -3.877,10.239 -13.744,17.516 -25.305,17.516 -12.533,0 -23.073,-8.548 -26.151,-20.15 -5.323,3.808 -11.834,6.049 -18.868,6.049 -8.931,0 -17.02,-3.613 -22.898,-9.461 -2.814,1.696 -6.108,2.671 -9.629,2.671 -10.174,0 -18.454,-8.137 -18.728,-18.28 z"
             style="fill:#ffffff;fill-opacity:1;fill-rule:evenodd;stroke:none"
             id="path8648" />
        </g>
        <g
           id="g8650"
           transform="translate(616.2861,717.4893)">
          <path
             d="m 0,0 c 0.781,0 1.557,-0.025 2.326,-0.074 1.945,18.259 17.344,32.482 36.056,32.482 15.531,0 28.778,-9.8 33.946,-23.573 20.591,-3.78 36.198,-21.877 36.198,-43.632 0,-0.386 -0.005,-0.771 -0.014,-1.155 1.844,0.577 3.804,0.889 5.837,0.889 9.736,0 17.812,-7.129 19.331,-16.469 H -68.896 c -0.298,1.636 -0.456,3.323 -0.456,5.047 0,15.404 12.445,27.892 27.795,27.892 3.243,0 6.355,-0.559 9.249,-1.585 C -26.438,-8.224 -14.177,0 0,0"
             style="fill:#ffffff;fill-opacity:1;fill-rule:evenodd;stroke:none"
             id="path8652" />
        </g>
        <g
           id="g8654"
           transform="translate(528.2441,593.3223)">
          <path
             d="m 0,0 c 0.199,1.228 0.305,2.488 0.305,3.774 0,12.855 -10.385,23.276 -23.194,23.276 -8.675,0 -16.237,-4.782 -20.215,-11.862 -9.584,10.753 -23.515,17.523 -39.022,17.523 -9.827,0 -19.02,-2.719 -26.878,-7.447 -4.96,6.803 -12.973,11.222 -22.017,11.222 -9.468,0 -17.808,-4.845 -22.698,-12.197 -1.502,0.161 -3.026,0.244 -4.569,0.244 -9.343,0 -17.982,-3.018 -25.006,-8.133 -6.014,6.547 -14.63,10.65 -24.203,10.65 -16.142,0 -29.569,-11.664 -32.371,-27.05 z"
             style="fill:#ffffff;fill-opacity:1;fill-rule:evenodd;stroke:none"
             id="path8656" />
        </g>
        <g
           id="g8658"
           transform="translate(166.3232,269.6328)">
          <path
             d="M 0,0 C 38.611,103.733 109.392,172.916 215.422,204.242 L 197.677,192.47 C 178.802,145.837 180.466,95.506 203,54.813 L 213.323,42.7 196.79,51.143 C 129.154,61.504 62.977,48.423 10.718,14.864 Z"
             style="fill:#ffffff;fill-opacity:1;fill-rule:evenodd;stroke:none"
             id="path8660" />
        </g>
        <g
           id="g8662"
           transform="translate(385.7612,474.208)">
          <path
             d="m 0,0 190.445,-247.097 -21.918,19.442 -107.119,26.039 -11.023,-17.155 6.756,21.948 -45.855,177.709 z"
             style="fill:#ffffff;fill-opacity:1;fill-rule:evenodd;stroke:none"
             id="path8664" />
        </g>
        <g
           id="g8666"
           transform="translate(359.9336,289.1318)">
          <path
             d="m 0,0 c 4.232,0 7.664,-3.444 7.664,-7.69 0,-4.249 -3.432,-7.692 -7.664,-7.692 -4.233,0 -7.664,3.443 -7.664,7.692 C -7.664,-3.444 -4.233,0 0,0 m 25.801,-0.001 c 4.233,0 7.664,-3.443 7.664,-7.691 0,-4.247 -3.431,-7.692 -7.664,-7.692 -4.233,0 -7.664,3.445 -7.664,7.692 0,4.248 3.431,7.691 7.664,7.691 m -77.406,0 c 4.232,0 7.664,-3.443 7.664,-7.691 0,-4.247 -3.432,-7.692 -7.664,-7.692 -4.233,0 -7.665,3.445 -7.665,7.692 0,4.248 3.432,7.691 7.665,7.691 M -25.803,0 c 4.233,0 7.664,-3.444 7.664,-7.69 0,-4.249 -3.431,-7.692 -7.664,-7.692 -4.233,0 -7.664,3.443 -7.664,7.692 0,4.246 3.431,7.69 7.664,7.69"
             style="fill:#9e6c39;fill-opacity:1;fill-rule:evenodd;stroke:none"
             id="path8668" />
        </g>
      </g>
    </g>
  </g>
</svg>
